<?xml version="1.0" encoding="UTF-8"?>
<svg id="Layer_1" data-name="Layer 1" xmlns="http://www.w3.org/2000/svg" viewBox="0 0 1290.6 293.39">
  <g>
    <polygon points="27.06 292.68 0 292.68 0 17.64 27.06 38.62 27.06 292.68" fill="#af9b82"/>
    <polygon points="257.79 124.38 257.79 124.37 159.97 199.89 159.97 234.17 254.42 161.38 254.42 293.39 281.48 293.39 281.48 106 257.79 124.38" fill="#af9b82"/>
    <polygon points="296.58 43.51 296.58 43.5 164.98 145.1 78.43 78.59 78.43 112.92 164.01 179.92 164.05 180.24 293.21 80.51 293.21 292.68 320.27 292.68 320.27 25.13 296.58 43.51" fill="#fff"/>
    <polygon points="161.7 128.64 161.7 94.41 50.59 8.31 39.88 0 39.88 292.68 66.94 292.68 66.94 55.35 161.7 128.64" fill="#fff"/>
  </g>
  <g>
    <g>
      <path d="M485.11,268.06v-26.43c0-15.08,10.69-25.03,26.84-25.03s26.74,9.63,26.74,24.06c0,.76-.54,1.17-1.61,1.27l-9.09.54c-1.07.1-1.71-.22-1.71-.54v-.64c0-8.46-5.67-14.01-14.33-14.01s-14.45,5.55-14.45,14.01v27.28c0,8.34,5.77,13.91,14.45,13.91s14.33-5.55,14.33-13.91c0-.76.64-1.27,1.71-1.17l8.97.42c1.07.1,1.71.22,1.71.54v.54c0,14.65-10.69,24.28-26.74,24.28s-26.84-10.05-26.84-25.13l.02.02Z" fill="#fff"/>
      <path d="M547.99,267.08v-24.38c0-15.62,10.9-26.09,27.16-26.09s27.28,10.49,27.28,26.09v24.38c0,15.82-10.9,26.31-27.28,26.31s-27.16-10.49-27.16-26.31ZM590.04,267.52v-24.91c0-9.19-5.89-15.3-14.86-15.3s-14.77,6.09-14.77,15.3v24.91c0,9.19,5.89,15.18,14.77,15.18s14.86-5.99,14.86-15.18Z" fill="#fff"/>
      <path d="M614.1,290.62v-71.44c0-1.07.64-1.71,1.71-1.71h8.56c.86,0,1.71.42,2.13,1.17l29.95,48.99c.32.54.76.42.76-.22v-48.24c0-1.07.64-1.71,1.71-1.71h8.97c1.07,0,1.71.64,1.71,1.71v71.44c0,1.07-.64,1.71-1.71,1.71h-8.78c-.86,0-1.71-.42-2.13-1.17l-29.95-49.31c-.32-.54-.76-.42-.76.22l.1,48.55c0,1.17-.64,1.71-1.71,1.71h-8.88c-1.07,0-1.71-.64-1.71-1.71h.02Z" fill="#fff"/>
      <path d="M679.98,271.68v-2.25c0-1.07.64-1.71,1.71-1.71h8.78c1.07,0,1.71.54,1.71,1.61v1.71c0,6.31,5.99,11.44,15.82,11.44,9.19,0,13.15-4.5,13.15-9.95,0-6.21-5.55-8.66-17.11-13.15-11.76-4.28-23.32-8.87-23.32-22.47,0-12.74,10.05-20.32,25.13-20.32,16.26,0,27.16,8.87,27.16,22.03v1.39c0,1.07-.64,1.71-1.71,1.71h-8.78c-1.07,0-1.71-.54-1.71-1.27v-1.17c0-6.41-5.45-11.98-15.5-11.98-7.92,0-12.4,3.42-12.4,9.41,0,6.53,5.13,8.66,17.43,13.15,10.9,4.18,23.2,8.66,23.2,22.35,0,12.52-10.05,20.95-26.53,20.95s-27.06-8.46-27.06-21.49h.02Z" fill="#fff"/>
      <path d="M793.03,219.17v7.38c0,1.07-.64,1.71-1.71,1.71h-19.14c-.42,0-.64.22-.64.64v61.71c0,1.07-.64,1.71-1.71,1.71h-8.97c-1.07,0-1.71-.64-1.71-1.71v-61.71c0-.32-.22-.64-.64-.64h-18.39c-1.07,0-1.71-.64-1.71-1.71v-7.38c0-1.07.64-1.71,1.71-1.71h51.24c1.07,0,1.71.64,1.71,1.71h-.04Z" fill="#fff"/>
      <path d="M842.66,291.04l-14.01-30.58c-.1-.32-.42-.42-.76-.42h-12.52c-.32,0-.64.22-.64.64v29.95c0,1.07-.64,1.71-1.71,1.71h-8.97c-1.07,0-1.71-.64-1.71-1.71v-71.56c0-1.07.64-1.71,1.71-1.71h28.99c13.25,0,22.13,8.78,22.13,21.81,0,9.95-5.45,17.11-14.23,19.68-.42.1-.54.54-.32.86l14.77,30.58c.54,1.17,0,2.03-1.27,2.03h-9.41c-.96,0-1.61-.32-2.03-1.27h-.02ZM814.74,228.7v21.07c0,.42.22.64.64.64h15.94c6.85,0,11.44-4.5,11.44-11.02s-4.6-11.34-11.44-11.34h-15.94c-.42,0-.64.22-.64.64v.02Z" fill="#fff"/>
      <path d="M865.11,268.06v-48.87c0-1.07.64-1.71,1.71-1.71h8.97c1.07,0,1.71.64,1.71,1.71v49.09c0,8.46,5.77,14.23,14.45,14.23s14.45-5.77,14.45-14.23v-49.09c0-1.07.64-1.71,1.71-1.71h8.97c1.07,0,1.71.64,1.71,1.71v48.87c0,15.18-10.69,25.13-26.84,25.13s-26.84-9.95-26.84-25.13h0Z" fill="#fff"/>
      <path d="M928.86,268.06v-26.43c0-15.08,10.69-25.03,26.84-25.03s26.74,9.63,26.74,24.06c0,.76-.54,1.17-1.61,1.27l-9.09.54c-1.07.1-1.71-.22-1.71-.54v-.64c0-8.46-5.67-14.01-14.33-14.01s-14.45,5.55-14.45,14.01v27.28c0,8.34,5.77,13.91,14.45,13.91s14.33-5.55,14.33-13.91c0-.76.64-1.27,1.71-1.17l8.97.42c1.07.1,1.71.22,1.71.54v.54c0,14.65-10.69,24.28-26.74,24.28s-26.84-10.05-26.84-25.13l.02.02Z" fill="#fff"/>
      <path d="M1043.18,219.17v7.38c0,1.07-.64,1.71-1.71,1.71h-19.14c-.42,0-.64.22-.64.64v61.71c0,1.07-.64,1.71-1.71,1.71h-8.97c-1.07,0-1.71-.64-1.71-1.71v-61.71c0-.32-.22-.64-.64-.64h-18.39c-1.07,0-1.71-.64-1.71-1.71v-7.38c0-1.07.64-1.71,1.71-1.71h51.24c1.07,0,1.71.64,1.71,1.71h-.04Z" fill="#fff"/>
      <path d="M1052.5,290.62v-71.44c0-1.07.64-1.71,1.71-1.71h8.97c1.07,0,1.71.64,1.71,1.71v71.44c0,1.07-.64,1.71-1.71,1.71h-8.97c-1.07,0-1.71-.64-1.71-1.71Z" fill="#fff"/>
      <path d="M1076.55,267.08v-24.38c0-15.62,10.9-26.09,27.16-26.09s27.28,10.49,27.28,26.09v24.38c0,15.82-10.9,26.31-27.28,26.31s-27.16-10.49-27.16-26.31ZM1118.58,267.52v-24.91c0-9.19-5.89-15.3-14.86-15.3s-14.77,6.09-14.77,15.3v24.91c0,9.19,5.89,15.18,14.77,15.18s14.86-5.99,14.86-15.18Z" fill="#fff"/>
      <path d="M1142.66,290.62v-71.44c0-1.07.64-1.71,1.71-1.71h8.56c.86,0,1.71.42,2.13,1.17l29.95,48.99c.32.54.76.42.76-.22v-48.24c0-1.07.64-1.71,1.71-1.71h8.97c1.07,0,1.71.64,1.71,1.71v71.44c0,1.07-.64,1.71-1.71,1.71h-8.78c-.86,0-1.71-.42-2.13-1.17l-29.95-49.31c-.32-.54-.76-.42-.76.22l.1,48.55c0,1.17-.64,1.71-1.71,1.71h-8.87c-1.07,0-1.71-.64-1.71-1.71h.02Z" fill="#fff"/>
    </g>
    <g>
      <path d="M392.7,169.2V30.3c0-2.29,1.25-3.54,3.54-3.54h22.31c1.87,0,3.12.62,4.18,2.29l30.25,48.79c.42.84,1.25.84,1.67,0l30.66-48.79c1.03-1.67,2.29-2.29,4.18-2.29h22.31c2.29,0,3.54,1.25,3.54,3.54v138.9c0,2.29-1.25,3.54-3.54,3.54h-22.31c-2.29,0-3.54-1.25-3.54-3.54v-90.3c0-1.25-.84-1.45-1.45-.42l-21.05,34.41c-1.03,1.67-2.29,2.29-4.18,2.29h-10.63c-1.87,0-3.12-.62-4.18-2.29l-20.85-34.41c-.62-1.03-1.45-.84-1.45.42v90.3c0,2.29-1.25,3.54-3.54,3.54h-22.31c-2.29,0-3.54-1.25-3.54-3.54h-.06Z" fill="#fff"/>
      <path d="M659.85,169.84l-5.83-19.4c-.2-.84-.62-1.03-1.25-1.03h-51.1c-.62,0-1.03.2-1.25,1.03l-5.83,19.4c-.62,1.87-1.87,2.93-3.96,2.93h-24.2c-2.51,0-3.76-1.67-2.93-3.96l44.41-139.09c.62-1.87,1.87-2.93,3.96-2.93h30.66c2.09,0,3.34,1.03,3.96,2.93l44.41,139.09c.84,2.29-.42,3.96-2.93,3.96h-24.2c-2.09,0-3.34-1.03-3.96-2.93h.02ZM608.75,126.66h36.91c.84,0,1.25-.42,1.03-1.45l-18.76-63.62c-.42-1.03-1.25-1.03-1.67,0l-18.57,63.62c-.2,1.03.2,1.45,1.03,1.45h.02Z" fill="#fff"/>
      <path d="M725.12,130.83v-3.54c0-2.29,1.25-3.54,3.54-3.54h21.89c2.29,0,3.54,1.03,3.54,2.71v2.93c0,10.63,10.63,19.82,27.52,19.82,15.86,0,21.69-7.92,21.69-16.26,0-10.65-10.63-14.39-30.45-21.69-21.69-7.5-46.72-17.31-46.72-44.83,0-25.65,21.05-41.29,50.88-41.29,32.12,0,54.84,17.93,54.84,44.83v2.09c0,2.29-1.25,3.54-3.54,3.54h-21.89c-2.29,0-3.54-.84-3.54-2.09v-2.09c0-10.85-9.39-21.07-26.9-21.07-13.35,0-20.85,5.83-20.85,15.64,0,10.85,9.17,14.61,32.32,22.72,18.98,6.89,45.25,15.02,45.25,43.38,0,25.45-20.66,42.35-53.39,42.35s-54.23-17.09-54.23-43.58l.04-.02Z" fill="#fff"/>
      <path d="M984.12,30.3v18.35c0,2.29-1.25,3.54-3.54,3.54h-36.08c-.84,0-1.25.42-1.25,1.25v115.75c0,2.29-1.25,3.54-3.54,3.54h-22.31c-2.29,0-3.54-1.25-3.54-3.54V53.45c0-.84-.42-1.25-1.25-1.25h-35.04c-2.29,0-3.54-1.25-3.54-3.54v-18.35c0-2.29,1.25-3.54,3.54-3.54h103.02c2.29,0,3.54,1.25,3.54,3.54Z" fill="#fff"/>
      <path d="M1129.88,51.99h-67.16c-.62,0-1.25.42-1.25,1.25v31.92c0,.84.42,1.25,1.25,1.25h43.58c2.29,0,3.54,1.25,3.54,3.54v18.15c0,2.29-1.25,3.54-3.54,3.54h-43.58c-.62,0-1.25.42-1.25,1.25v33.37c0,.62.42,1.25,1.25,1.25h67.16c2.29,0,3.54,1.25,3.54,3.54v18.15c0,2.29-1.25,3.54-3.54,3.54h-94.26c-2.29,0-3.54-1.25-3.54-3.54V30.32c0-2.29,1.25-3.54,3.54-3.54h94.26c2.29,0,3.54,1.25,3.54,3.54v18.15c0,2.29-1.25,3.54-3.54,3.54v-.02Z" fill="#fff"/>
      <path d="M1259.81,170.04l-25.65-56.73c-.2-.62-.84-1.03-1.45-1.03h-18.98c-.84,0-1.25.42-1.25,1.25v55.68c0,2.29-1.25,3.54-3.54,3.54h-22.31c-2.29,0-3.54-1.25-3.54-3.54V30.1c0-2.29,1.25-3.54,3.54-3.54h58.6c26.9,0,44.63,17.73,44.63,44,0,18.98-10.23,33.15-26.68,38.78-.84.2-1.03,1.03-.62,1.67l27.52,57.55c1.25,2.29.22,4.18-2.51,4.18h-23.56c-1.87,0-3.34-1.03-4.18-2.71h-.02ZM1212.47,53.25v35.04c0,.62.42,1.25,1.25,1.25h27.1c11.68,0,19.82-7.5,19.82-18.57s-8.14-18.98-19.82-18.98h-27.1c-.84,0-1.25.42-1.25,1.25h0Z" fill="#fff"/>
    </g>
  </g>
</svg>