<?xml version="1.0" encoding="UTF-8"?>
<svg id="Layer_1" xmlns="http://www.w3.org/2000/svg" version="1.1" viewBox="0 0 1363.8 308">
  <!-- Generator: Adobe Illustrator 30.1.0, SVG Export Plug-In . SVG Version: 2.1.1 Build 136)  -->
  <defs>
    <style>
      .st0 {
        fill: #243439;
      }

      .st1 {
        fill: #af9b82;
      }
    </style>
  </defs>
  <g>
    <polygon class="st1" points="67.2 299 40.2 299 40.2 23.9 67.2 44.9 67.2 299"/>
    <polygon class="st1" points="297.9 130.7 297.9 130.6 200.1 206.2 200.1 240.4 294.6 167.7 294.6 299.7 321.6 299.7 321.6 112.3 297.9 130.7"/>
    <polygon class="st0" points="336.7 49.8 336.7 49.8 205.1 151.4 118.6 84.9 118.6 119.2 204.2 186.2 204.2 186.5 333.4 86.8 333.4 299 360.4 299 360.4 31.4 336.7 49.8"/>
    <polygon class="st0" points="201.9 134.9 201.9 100.7 90.7 14.6 80 6.3 80 299 107.1 299 107.1 61.6 201.9 134.9"/>
  </g>
  <g>
    <g>
      <path class="st0" d="M525.3,274.3v-26.4c0-15.1,10.7-25,26.8-25s26.7,9.6,26.7,24.1-.5,1.2-1.6,1.3l-9.1.5c-1.1,0-1.7-.2-1.7-.5v-.6c0-8.5-5.7-14-14.3-14s-14.4,5.6-14.4,14v27.3c0,8.3,5.8,13.9,14.4,13.9s14.3-5.6,14.3-13.9.6-1.3,1.7-1.2l9,.4c1.1,0,1.7.2,1.7.5v.5c0,14.6-10.7,24.3-26.7,24.3s-26.8-10-26.8-25.1h0Z"/>
      <path class="st0" d="M588.1,273.4v-24.4c0-15.6,10.9-26.1,27.2-26.1s27.3,10.5,27.3,26.1v24.4c0,15.8-10.9,26.3-27.3,26.3s-27.2-10.5-27.2-26.3ZM630.2,273.8v-24.9c0-9.2-5.9-15.3-14.9-15.3s-14.8,6.1-14.8,15.3v24.9c0,9.2,5.9,15.2,14.8,15.2s14.9-6,14.9-15.2Z"/>
      <path class="st0" d="M654.3,296.9v-71.4c0-1.1.6-1.7,1.7-1.7h8.6c.9,0,1.7.4,2.1,1.2l29.9,49c.3.5.8.4.8-.2v-48.2c0-1.1.6-1.7,1.7-1.7h9c1.1,0,1.7.6,1.7,1.7v71.4c0,1.1-.6,1.7-1.7,1.7h-8.8c-.9,0-1.7-.4-2.1-1.2l-29.9-49.3c-.3-.5-.8-.4-.8.2v48.6c0,1.2-.5,1.7-1.6,1.7h-8.9c-1.1,0-1.7-.6-1.7-1.7h0Z"/>
      <path class="st0" d="M720.1,278v-2.2c0-1.1.6-1.7,1.7-1.7h8.8c1.1,0,1.7.5,1.7,1.6v1.7c0,6.3,6,11.4,15.8,11.4s13.2-4.5,13.2-9.9-5.6-8.7-17.1-13.2c-11.8-4.3-23.3-8.9-23.3-22.5s10-20.3,25.1-20.3,27.2,8.9,27.2,22v1.4c0,1.1-.6,1.7-1.7,1.7h-8.8c-1.1,0-1.7-.5-1.7-1.3v-1.2c0-6.4-5.5-12-15.5-12s-12.4,3.4-12.4,9.4,5.1,8.7,17.4,13.2c10.9,4.2,23.2,8.7,23.2,22.3s-10,21-26.5,21-27.1-8.5-27.1-21.5h0Z"/>
      <path class="st0" d="M833.2,225.4v7.4c0,1.1-.6,1.7-1.7,1.7h-19.1c-.4,0-.6.2-.6.6v61.7c0,1.1-.6,1.7-1.7,1.7h-9c-1.1,0-1.7-.6-1.7-1.7v-61.7c0-.3-.2-.6-.6-.6h-18.4c-1.1,0-1.7-.6-1.7-1.7v-7.4c0-1.1.6-1.7,1.7-1.7h51.2c1.1,0,1.7.6,1.7,1.7h0Z"/>
      <path class="st0" d="M882.8,297.3l-14-30.6c0-.3-.4-.4-.8-.4h-12.5c-.3,0-.6.2-.6.6v29.9c0,1.1-.6,1.7-1.7,1.7h-9c-1.1,0-1.7-.6-1.7-1.7v-71.6c0-1.1.6-1.7,1.7-1.7h29c13.3,0,22.1,8.8,22.1,21.8s-5.5,17.1-14.2,19.7c-.4,0-.5.5-.3.9l14.8,30.6c.5,1.2,0,2-1.3,2h-9.4c-1,0-1.6-.3-2-1.3h0ZM854.9,235v21.1c0,.4.2.6.6.6h15.9c6.8,0,11.4-4.5,11.4-11s-4.6-11.3-11.4-11.3h-15.9c-.4,0-.6.2-.6.6h0Z"/>
      <path class="st0" d="M905.3,274.3v-48.9c0-1.1.6-1.7,1.7-1.7h9c1.1,0,1.7.6,1.7,1.7v49.1c0,8.5,5.8,14.2,14.4,14.2s14.4-5.8,14.4-14.2v-49.1c0-1.1.6-1.7,1.7-1.7h9c1.1,0,1.7.6,1.7,1.7v48.9c0,15.2-10.7,25.1-26.8,25.1s-26.8-9.9-26.8-25.1h0Z"/>
      <path class="st0" d="M969,274.3v-26.4c0-15.1,10.7-25,26.8-25s26.7,9.6,26.7,24.1-.5,1.2-1.6,1.3l-9.1.5c-1.1,0-1.7-.2-1.7-.5v-.6c0-8.5-5.7-14-14.3-14s-14.4,5.6-14.4,14v27.3c0,8.3,5.8,13.9,14.4,13.9s14.3-5.6,14.3-13.9.6-1.3,1.7-1.2l9,.4c1.1,0,1.7.2,1.7.5v.5c0,14.6-10.7,24.3-26.7,24.3s-26.8-10-26.8-25.1h0Z"/>
      <path class="st0" d="M1083.3,225.4v7.4c0,1.1-.6,1.7-1.7,1.7h-19.1c-.4,0-.6.2-.6.6v61.7c0,1.1-.6,1.7-1.7,1.7h-9c-1.1,0-1.7-.6-1.7-1.7v-61.7c0-.3-.2-.6-.6-.6h-18.4c-1.1,0-1.7-.6-1.7-1.7v-7.4c0-1.1.6-1.7,1.7-1.7h51.2c1.1,0,1.7.6,1.7,1.7h0Z"/>
      <path class="st0" d="M1092.6,296.9v-71.4c0-1.1.6-1.7,1.7-1.7h9c1.1,0,1.7.6,1.7,1.7v71.4c0,1.1-.6,1.7-1.7,1.7h-9c-1.1,0-1.7-.6-1.7-1.7Z"/>
      <path class="st0" d="M1116.7,273.4v-24.4c0-15.6,10.9-26.1,27.2-26.1s27.3,10.5,27.3,26.1v24.4c0,15.8-10.9,26.3-27.3,26.3s-27.2-10.5-27.2-26.3ZM1158.7,273.8v-24.9c0-9.2-5.9-15.3-14.9-15.3s-14.8,6.1-14.8,15.3v24.9c0,9.2,5.9,15.2,14.8,15.2s14.9-6,14.9-15.2Z"/>
      <path class="st0" d="M1182.8,296.9v-71.4c0-1.1.6-1.7,1.7-1.7h8.6c.9,0,1.7.4,2.1,1.2l29.9,49c.3.5.8.4.8-.2v-48.2c0-1.1.6-1.7,1.7-1.7h9c1.1,0,1.7.6,1.7,1.7v71.4c0,1.1-.6,1.7-1.7,1.7h-8.8c-.9,0-1.7-.4-2.1-1.2l-29.9-49.3c-.3-.5-.8-.4-.8.2v48.6c0,1.2-.5,1.7-1.6,1.7h-8.9c-1.1,0-1.7-.6-1.7-1.7h0Z"/>
    </g>
    <g>
      <path class="st0" d="M432.9,175.5V36.6c0-2.3,1.3-3.5,3.5-3.5h22.3c1.9,0,3.1.6,4.2,2.3l30.2,48.8c.4.8,1.3.8,1.7,0l30.7-48.8c1-1.7,2.3-2.3,4.2-2.3h22.3c2.3,0,3.5,1.3,3.5,3.5v138.9c0,2.3-1.3,3.5-3.5,3.5h-22.3c-2.3,0-3.5-1.3-3.5-3.5v-90.3c0-1.3-.8-1.5-1.5-.4l-21.1,34.4c-1,1.7-2.3,2.3-4.2,2.3h-10.6c-1.9,0-3.1-.6-4.2-2.3l-20.9-34.4c-.6-1-1.5-.8-1.5.4v90.3c0,2.3-1.3,3.5-3.5,3.5h-22.3c-2.3,0-3.5-1.3-3.5-3.5h0Z"/>
      <path class="st0" d="M700,176.1l-5.8-19.4c-.2-.8-.6-1-1.3-1h-51.1c-.6,0-1,.2-1.3,1l-5.8,19.4c-.6,1.9-1.9,2.9-4,2.9h-24.2c-2.5,0-3.8-1.7-2.9-4l44.4-139.1c.6-1.9,1.9-2.9,4-2.9h30.7c2.1,0,3.3,1,4,2.9l44.4,139.1c.8,2.3-.4,4-2.9,4h-24.2c-2.1,0-3.3-1-4-2.9h0ZM648.9,132.9h36.9c.8,0,1.3-.4,1-1.5l-18.8-63.6c-.4-1-1.3-1-1.7,0l-18.6,63.6c-.2,1,.2,1.5,1,1.5h0Z"/>
      <path class="st0" d="M765.3,137.1v-3.5c0-2.3,1.3-3.5,3.5-3.5h21.9c2.3,0,3.5,1,3.5,2.7v2.9c0,10.6,10.6,19.8,27.5,19.8s21.7-7.9,21.7-16.3-10.6-14.4-30.4-21.7c-21.7-7.5-46.7-17.3-46.7-44.8s21.1-41.3,50.9-41.3,54.8,17.9,54.8,44.8v2.1c0,2.3-1.3,3.5-3.5,3.5h-21.9c-2.3,0-3.5-.8-3.5-2.1v-2.1c0-10.8-9.4-21.1-26.9-21.1s-20.9,5.8-20.9,15.6,9.2,14.6,32.3,22.7c19,6.9,45.3,15,45.3,43.4s-20.7,42.3-53.4,42.3-54.2-17.1-54.2-43.6h0Z"/>
      <path class="st0" d="M1024.3,36.6v18.3c0,2.3-1.3,3.5-3.5,3.5h-36.1c-.8,0-1.3.4-1.3,1.3v115.8c0,2.3-1.3,3.5-3.5,3.5h-22.3c-2.3,0-3.5-1.3-3.5-3.5V59.7c0-.8-.4-1.3-1.3-1.3h-35c-2.3,0-3.5-1.3-3.5-3.5v-18.3c0-2.3,1.3-3.5,3.5-3.5h103c2.3,0,3.5,1.3,3.5,3.5Z"/>
      <path class="st0" d="M1170,58.3h-67.2c-.6,0-1.3.4-1.3,1.3v31.9c0,.8.4,1.3,1.3,1.3h43.6c2.3,0,3.5,1.3,3.5,3.5v18.1c0,2.3-1.3,3.5-3.5,3.5h-43.6c-.6,0-1.3.4-1.3,1.3v33.4c0,.6.4,1.3,1.3,1.3h67.2c2.3,0,3.5,1.3,3.5,3.5v18.1c0,2.3-1.3,3.5-3.5,3.5h-94.3c-2.3,0-3.5-1.3-3.5-3.5V36.6c0-2.3,1.3-3.5,3.5-3.5h94.3c2.3,0,3.5,1.3,3.5,3.5v18.1c0,2.3-1.3,3.5-3.5,3.5h0Z"/>
      <path class="st0" d="M1300,176.3l-25.6-56.7c-.2-.6-.8-1-1.5-1h-19c-.8,0-1.3.4-1.3,1.3v55.7c0,2.3-1.3,3.5-3.5,3.5h-22.3c-2.3,0-3.5-1.3-3.5-3.5V36.4c0-2.3,1.3-3.5,3.5-3.5h58.6c26.9,0,44.6,17.7,44.6,44s-10.2,33.2-26.7,38.8c-.8.2-1,1-.6,1.7l27.5,57.5c1.3,2.3.2,4.2-2.5,4.2h-23.6c-1.9,0-3.3-1-4.2-2.7h0ZM1252.6,59.5v35c0,.6.4,1.3,1.3,1.3h27.1c11.7,0,19.8-7.5,19.8-18.6s-8.1-19-19.8-19h-27.1c-.8,0-1.3.4-1.3,1.3h0Z"/>
    </g>
  </g>
</svg>